<?xml version="1.0" encoding="utf-8"?>
<!-- Generator: Adobe Illustrator 24.0.1, SVG Export Plug-In . SVG Version: 6.00 Build 0)  -->
<svg version="1.1" id="e30a93e9-ff50-4cbb-8b14-9d39224e305c"
	 xmlns="http://www.w3.org/2000/svg" xmlns:xlink="http://www.w3.org/1999/xlink" x="0px" y="0px" viewBox="0 0 888 442.2"
	 style="enable-background:new 0 0 888 442.2;" xml:space="preserve">
<style type="text/css">
	.st0{fill:#6C63FF;}
	.st1{fill:#FBBEBE;}
</style>
<title>next_js</title>
<rect y="341.1" width="888" height="2.2"/>
<circle class="st0" cx="857.4" cy="271.9" r="28.9"/>
<circle cx="869.4" cy="309.4" r="3.7"/>
<path d="M327.5,169.8h115.2v9.2H338.1v68.9h98.4v9.2h-98.4v75.7h105.9v9.2H327.5L327.5,169.8z M453.1,169.8h12.2l54.2,75.7
	l55.4-75.7l75.4-96.1L526.5,253.5l63.9,88.4h-12.7l-58.1-80.5l-58.3,80.5h-12.5l64.3-88.4L453.1,169.8z M594.9,179v-9.2h131.3v9.2
	h-60.5v162.9h-10.6V179H594.9z M183.4,169.8h13.2l182.1,272.4l-75.2-100.4l-109-159.1l-0.5,159.1h-10.6L183.4,169.8z M725.2,330
	c-2.1,0-3.9-1.7-3.9-3.8c0-2.1,1.7-3.9,3.8-3.9c2.1,0,3.9,1.7,3.9,3.8c0,0,0,0,0,0.1c0.1,2.1-1.6,3.8-3.6,3.8
	C725.3,330,725.2,330,725.2,330z M735.5,319.9h5.7c0.1,3.1,2.3,5.1,5.6,5.1c3.7,0,5.8-2.2,5.8-6.4v-26.2h5.8v26.3
	c0,7.5-4.3,11.8-11.5,11.8C740.1,330.4,735.5,326.3,735.5,319.9z M765.8,319.6h5.7c0.5,3.5,3.9,5.8,8.9,5.8c4.6,0,8-2.4,8-5.7
	c0-2.8-2.2-4.5-7.1-5.7l-4.8-1.2c-6.7-1.6-9.8-4.8-9.8-10.3c0-6.6,5.4-11,13.5-11c7.5,0,13,4.4,13.4,10.6h-5.6
	c-0.5-3.4-3.5-5.6-7.8-5.6c-4.5,0-7.6,2.2-7.6,5.5c0,2.6,2,4.2,6.8,5.3l4.1,1c7.6,1.8,10.7,4.9,10.7,10.4c0,7.1-5.5,11.5-14.3,11.5
	C771.8,330.4,766.2,326.2,765.8,319.6L765.8,319.6z"/>
<circle class="st0" cx="119.9" cy="63.4" r="10.8"/>
<path class="st0" d="M122.9,52.9c6,0,10.8,4.8,10.8,10.8c0,1.8-0.4,3.5-1.3,5.1c3.7-4.6,3-11.4-1.7-15.1c-4.6-3.7-11.4-3-15.1,1.7
	c-0.4,0.5-0.8,1-1.1,1.6C116.5,54.4,119.6,52.9,122.9,52.9z"/>
<circle class="st0" cx="99.7" cy="31.7" r="31.7"/>
<path class="st0" d="M74.9,12.1c11.3-12.8,30.7-14.2,43.9-3.3c-0.3-0.2-0.5-0.5-0.8-0.7C104.9-3.6,84.9-2.4,73.3,10.7
	c-11.6,13.1-10.4,33,2.6,44.7c0.3,0.2,0.5,0.5,0.8,0.7C64.4,44.3,63.5,24.8,74.9,12.1z"/>
<path class="st1" d="M130.3,112.4l4.9,27.6l5.7,54.4c0,0,1.6,21.9-5.7,22.7s-5.7-24.4-5.7-24.4l-8.1-46.3l-3.2-28.4L130.3,112.4z"/>
<circle class="st1" cx="100.2" cy="38.5" r="19.5"/>
<polygon class="st1" points="84.8,46.7 81.6,65.3 102.7,70.2 102.7,52.3 "/>
<polygon class="st1" points="34.5,319.4 32,335.6 41.8,336.4 47.5,322.6 "/>
<polygon class="st1" points="110,321.8 112.4,334.8 122.9,334.8 122.9,322.6 "/>
<path d="M117.3,140l-53.6,8.1l-3.2,38.2L54,241.5l-23.5,80.4l23.5,2.4l42.2-108l10.6,108.8h24.4l1.6-111.2c0,0,0.8-61.7-12.2-65.8
	L117.3,140z"/>
<path d="M44.2,334l-13.8-2.4l-5.7,27.6c0,0-10.6,37.3,3.2,34.1s11.4-34.1,11.4-34.1L44.2,334z"/>
<path d="M110,334l13.8-2.4l5.7,27.6c0,0,10.6,37.3-3.2,34.1s-11.4-34.1-11.4-34.1L110,334z"/>
<path class="st1" d="M42.6,100.2c0,0-6.5,34.1-3.2,42.2S61.3,179,61.3,179l5.7-12.2l-16.2-31.7l5.7-32.5L42.6,100.2z"/>
<path d="M106.7,76.7l-1.6-12.2c0,0-20.3-3.2-23.5-8.9l-5.7,9.7l-18.7,4.1c0,0-10.6,0-11.4,8.1s-5.7,24.4-5.7,24.4l14.6,4.9
	l11.4,42.2l48.7-7.3l-2.4-21.9l2.4-5.7l2.4,6.5l15.4-3.2c0,0,0.8-29.2-14.6-34.1L106.7,76.7z"/>
<polygon class="st0" points="82,17.2 82,37.6 86.7,37.6 92.7,31.2 91.9,37.6 112.8,37.6 111.5,31.2 114.1,37.6 117.4,37.6 
	117.4,17.2 "/>
<polygon points="858.9,343.4 855.9,343.4 857.4,272.4 "/>
<polygon points="858,334.4 856.5,333.2 870.9,306.8 "/>
</svg>
